<svg version="1" xmlns="http://www.w3.org/2000/svg" width="1365.333" height="1365.333" viewBox="0 0 1024.000000 1024.000000"><path d="M395.9.4c-.2.2-5 .7-10.6 1-5.5.4-11.2.9-12.5 1.1-1.2.2-4.5.6-7.3 1-74.4 9-149.1 40.8-208.6 88.8-15.2 12.2-16.9 13.8-32.9 29.7-17.8 17.7-21.9 22.3-36.1 40.5C65 191.8 42.6 230.7 30.6 262c-2 5.2-4.1 10.4-4.6 11.5-.5 1.1-1.7 4.2-2.5 7-.9 2.7-1.8 5.7-2.1 6.5-.3.8-.5 1.7-.6 2 0 .3-.6 2.1-1.4 4-2.6 6.6-8.4 29.3-11.3 44.4-2.6 13.3-3.5 18.6-5.6 36.1-1.4 11.2-2 24.2-2 46 .1 27.6.6 35.8 4 61.5 1.1 7.9 6.5 34.2 9.1 44 4.3 16.2 13.4 43.5 17.9 53.5.7 1.6 3.2 7.3 5.5 12.5 7.1 16.2 17.1 34.6 30.3 55.6 8.1 12.8 24.7 34.9 36.2 48 6.6 7.5 29.6 30.8 36 36.4 14.4 12.6 33.9 28 35.4 28 .5 0 1.1.4 1.3.9.7 2 35.5 23.6 49 30.5 5.3 2.7 6.1 3.5 9.7 10.7 2.2 4.3 5.8 10.8 8.1 14.4 2.2 3.7 4 6.9 4 7.1 0 .7 17.9 27 22.4 32.9 2.5 3.3 5.6 7.3 6.8 9 7.8 10.2 17.9 21.4 32.3 36 32.5 32.7 67.4 58.1 109 79.2 10.4 5.3 35.9 16.3 37.7 16.3.8 0 1.8.4 2.3.9 1 .9 21 7.8 29.5 10.2 2.5.7 5 1.4 5.5 1.5 5.6 1.6 17.4 4.7 19 4.9 1.1.2 4.3.8 7 1.4 7.2 1.6 21.6 4.3 24.5 4.5 3.3.4 13.9 1.7 16.8 2.1 12.5 2 60.8 2.7 78.2 1.3 8.8-.8 24-2.5 27.5-3.2 1.1-.2 4.1-.6 6.6-1 6.4-.9 9.4-1.5 17.4-3.2 3.9-.8 8.1-1.7 9.5-2 8.1-1.6 24.3-6.1 36-10 54.7-18.3 104.8-46.8 147-83.9 13.5-11.9 39-38.8 50.3-53 2.6-3.3 5.3-6.7 6-7.5 5.1-6.2 27.7-40 27.7-41.4 0-.3 1.5-2.9 3.4-5.8 5.4-8.5 17.9-34.5 24.1-50 13.8-34.6 22.1-66.3 27.1-103.3 2.3-17.9 2.9-28.6 2.9-55.5-.1-21.3-1.4-44.8-3.1-53.5-.2-1.1-1.1-6.3-1.9-11.5-1.8-11.4-2-13-4.6-24.5-1.2-5-2.2-9.9-2.5-10.9-2-9.9-12-40-18.1-54.6-2.5-5.8-4.9-11.9-5.5-13.5-1-2.6-13.2-26.9-17.8-35.3-11-20.2-31.5-48.9-49.9-70.2-8.2-9.4-31.8-32.9-39.6-39.5-3.3-2.7-7.1-5.9-8.5-7.1-11.3-9.9-31.2-24-52.5-37.1-4.3-2.6-14.3-8.2-20.1-11.3-3.6-1.9-6.7-4.3-7.5-5.8-5.1-10-15.1-27.2-21.6-37-7.3-11.3-22.4-32.1-25.4-35.2-.8-.8-2.1-2.4-2.9-3.6-8.2-11.7-43-46-61-60.1-.8-.7-4.4-3.5-8-6.3-9-7.1-33.7-23.7-44.5-29.9-19-10.8-60.7-30-68.4-31.6-.9-.2-4.1-1.2-7.1-2.4-11.9-4.5-39.5-11.8-54.5-14.5-15.2-2.8-23.2-4-34.5-5.1-3.6-.4-8.1-.9-10-1.2-4.1-.5-57.6-1.4-58.1-.9z"/></svg>