<?xml version="1.0" encoding="UTF-8"?>
<svg width="100px" height="24px" viewBox="0 0 100 24" version="1.1" xmlns="http://www.w3.org/2000/svg" xmlns:xlink="http://www.w3.org/1999/xlink">
    <!-- Generator: Sketch 48.1 (47250) - http://www.bohemiancoding.com/sketch -->
    <title>coinTrace_logo</title>
    <desc>Created with Sketch.</desc>
    <defs></defs>
    <g id="new-simple-footer" stroke="none" stroke-width="1" fill="none" fill-rule="evenodd" transform="translate(-670.000000, -786.000000)">
        <g id="coinTrace_logo" transform="translate(670.000000, 786.000000)">
            <g id="blue-lines" transform="translate(3.000000, 20.000000)" fill="#78E9FF">
                <rect id="Rectangle-15" x="15" y="0" width="6" height="4" rx="2"></rect>
                <rect id="Rectangle-15-Copy-2" x="25" y="0" width="10" height="4" rx="2"></rect>
                <rect id="Rectangle-15-Copy-3" x="37" y="0" width="6" height="4" rx="2"></rect>
                <rect id="Rectangle-15-Copy-4" x="46" y="0" width="13" height="4" rx="2"></rect>
                <rect id="Rectangle-15-Copy-5" x="65" y="0" width="12" height="4" rx="2"></rect>
                <rect id="Rectangle-15-Copy-6" x="79" y="0" width="5" height="4" rx="2"></rect>
                <rect id="Rectangle-15-Copy-7" x="88" y="0" width="8" height="4" rx="2"></rect>
                <rect id="Rectangle-15-Copy" x="0" y="0" width="11" height="4" rx="2"></rect>
            </g>
            <path d="M92.8661109,16.3378826 C92.8661109,15.3189857 93.0828915,14.450214 93.5155495,13.7315675 C93.9491107,13.0138093 94.4802233,12.6549301 95.1079838,12.6549301 C95.4141865,12.6549301 95.6562582,12.7508681 95.834199,12.9427441 C96.013043,13.13462 96.102465,13.3895663 96.102465,13.7066947 C96.102465,14.3240733 95.8134241,14.8677219 95.2362457,15.3349754 C94.658164,15.8031172 93.867818,16.1540015 92.8661109,16.3876282 L92.8661109,16.3378826 Z M74.6755065,17.0893968 C74.5219536,17.807155 74.2753656,18.3845595 73.9357426,18.818057 C73.5970229,19.2524429 73.2393348,19.4691916 72.8662915,19.4691916 C72.4923449,19.4691916 72.1996911,19.3448276 71.9874267,19.0943229 C71.7742591,18.8429298 71.6685786,18.4591779 71.6685786,17.9412905 C71.6685786,17.0058952 71.8465193,16.1211338 72.2042074,15.2843414 C72.5609921,14.450214 73.0406193,13.7777598 73.6430888,13.2678672 C74.2464615,12.758863 74.9049327,12.4959218 75.617599,12.4781555 L74.6755065,17.0893968 Z M22.8658399,18.6928047 C22.4675055,19.1280788 21.9960076,19.3448276 21.4522496,19.3448276 C20.9590736,19.3448276 20.5309319,19.1023177 20.1651146,18.6172979 C19.8002005,18.1331664 19.6177435,17.4313979 19.6177435,16.5128806 C19.6177435,15.3438585 19.8426534,14.4368893 20.2924732,13.7946378 C20.742293,13.151498 21.3077291,12.8299281 21.9869751,12.8299281 L22.1143337,12.8299281 C22.0637516,13.0973108 22.0375572,13.3638052 22.0375572,13.6311879 C22.0375572,14.2663329 22.1784647,14.8677219 22.458473,15.4353549 C22.7384813,16.0038763 23.1422352,16.4631349 23.6688315,16.8131309 C23.5324403,17.632157 23.2650775,18.2584188 22.8658399,18.6928047 Z M52.3696832,5.95170799 C52.6496915,4.84131471 52.9468616,3.97165469 53.2611936,3.34539288 C53.5746222,2.71913107 53.86005,2.405556 54.1147673,2.405556 C54.4878106,2.405556 54.6747839,2.89857062 54.6747839,3.88371154 C54.6747839,4.75337156 54.4236797,5.71808124 53.9232777,6.77784059 C53.4228758,7.83937656 52.6704663,8.7952031 51.6687592,9.64709683 C51.8557325,8.29419365 52.0887717,7.06298958 52.3696832,5.95170799 Z M99.8094137,17.3399015 C99.6811518,17.1391424 99.5077273,17.0387628 99.2864304,17.0387628 C99.0317132,17.0387628 98.802287,17.1649035 98.5990552,17.4154082 C98.0038117,18.1669224 97.4817317,18.7016878 97.0319119,19.0188161 C96.5820921,19.3359444 96.0085267,19.4949528 95.3121189,19.4949528 C94.3438321,19.4949528 93.6564569,19.1103125 93.2481867,18.3419204 C95.2696661,17.8577889 96.7013215,17.2022127 97.5413464,16.3751918 C98.3822746,15.5481709 98.802287,14.5585884 98.802287,13.405556 C98.802287,12.4204151 98.5051169,11.6395865 97.9107767,11.0630703 C97.3164365,10.4865541 96.5260905,10.1987402 95.5415451,10.1987402 C94.4368672,10.1987402 93.4478055,10.4909957 92.573457,11.0755067 C91.6982052,11.6600178 91.014443,12.4497295 90.5221703,13.4428652 C90.0289944,14.4368893 89.7833097,15.5099734 89.7833097,16.6630057 C89.7833097,17.0094484 89.8140203,17.3319066 89.8546667,17.6481467 C89.3885883,18.0763143 88.9198002,18.4351934 88.4455926,18.7052411 C87.638988,19.165388 86.8874818,19.3936849 86.1910741,19.3936849 C84.4748941,19.3936849 83.6177074,18.4263103 83.6177074,16.4880078 C83.6177074,15.7862392 83.7197749,15.1430994 83.9230067,14.5585884 C84.1271418,13.9740774 84.3981176,13.5103771 84.7386439,13.168376 C85.0782668,12.8254866 85.4431809,12.6549301 85.8342893,12.6549301 C86.0375211,12.6549301 86.1946871,12.7126706 86.3057871,12.8299281 C86.415984,12.9471857 86.4710824,13.1133005 86.4710824,13.3300493 C86.4710824,13.5476863 86.4286295,13.7813131 86.3437237,14.0318178 C86.3265619,14.0984414 86.3012709,14.2077041 86.2669473,14.3578293 C86.2335269,14.5079545 86.2163651,14.64209 86.2163651,14.7593475 C86.2163651,15.0258419 86.3139164,15.2354841 86.509019,15.3856093 C86.7041215,15.5357345 86.963355,15.6112412 87.2867195,15.6112412 C87.796154,15.6112412 88.2080371,15.3687313 88.5223691,14.8837115 C88.836701,14.3995801 88.9929637,13.8061859 88.9929637,13.1044173 C88.9929637,12.2525236 88.7346334,11.556085 88.2161664,11.0133247 C87.6976994,10.4705645 86.9723876,10.1987402 86.0375211,10.1987402 C85.0863961,10.1987402 84.177724,10.4741177 83.3115047,11.0257611 C82.4452855,11.5774045 81.7407484,12.3617863 81.1969904,13.3806832 C80.6532323,14.3995801 80.3822565,15.5854801 80.3822565,16.9392716 C80.3822565,17.2315271 80.4147736,17.5033514 80.4481939,17.7725107 C80.1203132,18.1278366 79.8330789,18.4156505 79.5928137,18.6297343 C79.1339614,19.0401357 78.742853,19.2435597 78.4203918,19.2435597 C78.21716,19.2435597 78.0509615,19.1689413 77.9236029,19.0188161 C77.7962443,18.8686909 77.7330166,18.6679318 77.7330166,18.4174271 C77.7330166,17.6650246 77.9272159,16.3289994 78.3192275,14.4075749 C78.5730415,13.089316 78.7004001,12.2525236 78.7004001,11.9025277 C78.7004001,11.3180166 78.2840007,11.0257611 77.452105,11.0257611 C77.0609966,11.0257611 76.6879533,11.0595171 76.3311685,11.1261407 C76.2462628,10.7583784 76.139679,10.5034321 76.0132236,10.3613018 C75.885865,10.2191714 75.6347608,10.1481063 75.2608142,10.1481063 C74.0892956,10.1481063 72.9810046,10.511427 71.9368446,11.2389566 C70.8917813,11.9647097 70.0553694,12.9258661 69.4267056,14.119761 C69.2577973,14.4404425 69.1159867,14.766454 68.9922411,15.0977954 C68.5948099,15.3785028 68.2425414,15.5357345 67.9498875,15.5357345 C67.5244556,15.5357345 67.3121912,15.2443673 67.3121912,14.6580796 C67.3121912,14.4919648 67.3799351,14.0735686 67.5163263,13.405556 C67.668976,12.5705403 67.7448492,12.044658 67.7448492,11.8270209 C67.7448492,10.7415004 67.1929619,10.1987402 66.0891872,10.1987402 C65.5282673,10.1987402 64.9131523,10.3906162 64.2420356,10.7743681 C63.5709189,11.1590083 62.8871567,11.8021481 62.1916521,12.7037875 C61.4943411,13.6063151 60.8665806,14.7753372 60.3056607,16.2117419 C60.3734046,15.4771057 60.4592136,14.8588387 60.5603779,14.3578293 C60.6624455,13.8568198 60.7979334,13.2723088 60.9686481,12.6042962 C61.2233653,11.6689009 61.3498207,11.0666236 61.3498207,10.8001292 C61.3498207,10.5665025 61.2820768,10.4074941 61.1465889,10.3231043 C61.0101977,10.240491 60.7726423,10.1987402 60.4330193,10.1987402 C59.8043555,10.1987402 59.3156958,10.3115562 58.9679436,10.5371881 C58.6192881,10.76282 58.3690871,11.1172575 58.2164374,11.601389 C57.6374525,13.4028911 57.3375726,15.302996 57.29241,17.2892675 C56.773943,17.8391343 56.3078646,18.2752968 55.8977879,18.5924251 C55.3377713,19.026811 54.6919457,19.2435597 53.9621176,19.2435597 C53.0615747,19.2435597 52.4031036,18.8935638 51.9876074,18.1917952 C51.5703047,17.4900266 51.3625566,16.271259 51.3625566,14.5337156 C51.3625566,14.0655738 51.3797184,13.4144392 51.414042,12.5794234 L54.5221342,12.5794234 C56.441546,12.5794234 57.4008003,12.0029072 57.4008003,10.8498748 C57.4008003,10.5327465 57.3411856,10.3159977 57.2228595,10.1987402 C57.1036302,10.0814827 56.9085276,10.0237422 56.6366486,10.0237422 L53.7832736,10.0237422 C55.990823,8.10231769 57.0955009,5.84688686 57.0955009,3.25744973 C57.0955009,2.32294274 56.8913658,1.54566745 56.4839989,0.927400468 C56.076632,0.310021804 55.5157121,0 54.8021425,0 C53.834759,0 52.9296998,0.451263829 52.0887717,1.35379149 C51.2478435,2.25543083 50.5306609,3.46709198 49.9363207,4.9869983 C49.3410772,6.50690463 48.9002899,8.18581927 48.6112491,10.0237422 L47.1588189,10.0237422 C46.3946672,10.0237422 46.0125913,10.4909957 46.0125913,11.426391 C46.0125913,11.8270209 46.1020134,12.1201647 46.2799541,12.3031576 C46.4587981,12.4870387 46.8020341,12.5794234 47.3114686,12.5794234 L48.3059497,12.5794234 C48.2544643,13.3300493 48.2291733,14.0735686 48.2291733,14.8090931 C48.2291733,15.3562949 48.2544643,15.8670758 48.299627,16.3512073 C48.1478805,16.4045062 48.0033601,16.4888961 47.8723885,16.6381329 C47.091075,17.5566502 46.4669274,18.2211096 45.9999458,18.6297343 C45.5329642,19.0401357 45.1292103,19.2435597 44.7895873,19.2435597 C44.2973146,19.2435597 44.0516299,18.9104417 44.0516299,18.2424291 C44.0516299,17.7742873 44.2124089,16.8131309 44.5348701,15.3598482 C44.9088166,13.6560607 45.0957899,12.4781555 45.0957899,11.8270209 C45.0957899,10.7415004 44.5429993,10.1987402 43.4392246,10.1987402 C42.879208,10.1987402 42.2631897,10.3906162 41.5920731,10.7743681 C40.9209564,11.1590083 40.2371941,11.8021481 39.5416896,12.7037875 C38.8443786,13.6063151 38.216618,14.7753372 37.6556982,16.2117419 C37.7234421,15.4771057 37.8092511,14.8588387 37.9113187,14.3578293 C38.012483,13.8568198 38.1479708,13.2723088 38.3186856,12.6042962 C38.5734028,11.6689009 38.7007614,11.0666236 38.7007614,10.8001292 C38.7007614,10.5665025 38.6330175,10.4074941 38.4966264,10.3231043 C38.3611385,10.240491 38.123583,10.1987402 37.78396,10.1987402 C37.154393,10.1987402 36.6666366,10.3115562 36.3188843,10.5371881 C35.9702288,10.76282 35.7191246,11.1172575 35.5664749,11.601389 C34.9838769,13.4144392 34.6830938,15.3252039 34.6415442,17.3248001 C34.1483683,17.8808851 33.7337753,18.3161593 33.4013784,18.6172979 C32.942526,19.0356941 32.5604502,19.2435597 32.2542475,19.2435597 C31.9317864,19.2435597 31.7023602,19.1103125 31.5668723,18.8429298 C31.4304812,18.5764354 31.3627372,18.1917952 31.3627372,17.6898974 C31.3627372,17.0387628 31.5668723,15.7951223 31.9742392,13.9571994 C32.2967004,12.4372931 32.4583826,11.4690301 32.4583826,11.0506339 C32.4583826,10.4830009 32.0257246,10.1987402 31.1595054,10.1987402 C30.5985855,10.1987402 30.1912186,10.2982314 29.9365013,10.4998789 C29.6808809,10.6997497 29.477649,11.0666236 29.3249993,11.601389 C29.0612496,12.4781555 28.8480819,13.4259872 28.6665282,14.4208996 C27.8897309,14.591456 27.2005492,14.6953888 26.5989829,14.7335864 C26.4625918,13.4473068 26.0001265,12.3653396 25.2106837,11.488573 C24.4203376,10.6118065 23.3797906,10.1738674 22.0890426,10.1738674 C21.0358501,10.1738674 20.0765958,10.4536865 19.2103766,11.0133247 C18.3441573,11.5729629 17.6640081,12.3493499 17.1717354,13.343374 C16.6785595,14.337398 16.4328748,15.4691109 16.4328748,16.7385125 C16.4328748,17.0831786 16.4662951,17.4154082 16.5177805,17.7414197 C15.5630425,18.0976339 14.6706289,18.3792296 13.8468626,18.5799887 C12.7177968,18.8553662 11.6004733,18.993055 10.4966986,18.993055 C8.27108417,18.993055 6.58922781,18.4467415 5.45203277,17.3523379 C4.31393448,16.2579343 3.74488533,14.7087136 3.74488533,12.7037875 C3.74488533,10.7832512 4.05921724,9.12565614 4.68788106,7.73100218 C5.31564163,6.3354599 6.13940801,5.27925382 7.15918021,4.56060728 C8.17804916,3.84284907 9.2484035,3.48308164 10.36934,3.48308164 C12.0168728,3.48308164 12.8406391,4.24347896 12.8406391,5.76338529 C12.8406391,6.06452394 12.790057,6.46515384 12.6879895,6.96616329 C12.6202455,7.36679318 12.5859219,7.64305903 12.5859219,7.7931842 C12.5859219,8.21158039 12.7214098,8.52870871 12.9932888,8.74545748 C13.2651679,8.96220625 13.6391145,9.07058063 14.1142253,9.07058063 C14.7934713,9.07058063 15.3164546,8.76233546 15.6813686,8.14318017 C16.0471859,7.5258015 16.2296429,6.70677542 16.2296429,5.68876686 C16.2296429,4.16886053 15.7536288,2.94476298 14.8025038,2.01736251 C13.8513788,1.08996204 12.4585633,0.626261811 10.6240572,0.626261811 C8.65406328,0.626261811 6.8620101,1.14859081 5.24880093,2.19236049 C3.63378526,3.23701849 2.35658607,4.71073246 1.41359034,6.61527901 C0.470594611,8.51982557 0,10.6997497 0,13.1550513 C0,14.9263506 0.398334402,16.4791246 1.19680971,17.8160381 C1.99528502,19.1529516 3.14241584,20.1833966 4.63639566,20.910038 C6.13127873,21.6375676 7.88900832,22 9.91048767,22 C11.0829096,22 12.3185591,21.8791892 13.6183396,21.6375676 C14.9172169,21.3950577 16.169125,21.0148591 17.3758705,20.4969717 C17.4689055,20.4561092 17.5538113,20.4108051 17.6396203,20.3663894 C17.9241448,20.7128321 18.253832,21.017524 18.6368112,21.274247 C19.35851,21.7592667 20.2292455,22 21.2481145,22 C22.4539567,22 23.5324403,21.5780506 24.4835653,20.73504 C25.4355936,19.8920294 26.0723867,18.7674231 26.3948478,17.3647743 C27.0614483,17.3372365 27.6955316,17.2617298 28.3016141,17.1444723 C28.2880653,17.3745457 28.279936,17.5912945 28.279936,17.7911653 C28.279936,19.0596786 28.530137,20.0794638 29.0314422,20.8478559 C29.5327474,21.6162481 30.3348357,22 31.4395137,22 C32.5116745,22 33.6443533,21.4510216 34.8357435,20.3610595 C34.8881322,20.6009045 34.9477468,20.8167649 35.0191038,20.9979811 C35.2819503,21.6659937 35.7362864,22 36.382112,22 C36.9087083,22 37.2953004,21.8631995 37.5418883,21.5869337 C37.7875731,21.3115562 38.0043537,20.7812323 38.191327,19.9959622 C38.4460442,18.9770653 38.7811509,18.0079141 39.1975504,17.0893968 C39.6130466,16.1708794 40.0213168,15.4309133 40.4205544,14.8721634 C40.8188888,14.3125252 41.1296077,14.0318178 41.3500014,14.0318178 C41.5369746,14.0318178 41.6309129,14.1668416 41.6309129,14.4324477 C41.6309129,14.8348542 41.5198128,15.5606073 41.2994192,16.6132601 C41.0609605,17.8160381 40.9426344,18.6510539 40.9426344,19.1191957 C40.9426344,20.054591 41.1630281,20.7687959 41.6056218,21.2609222 C42.0464091,21.7548252 42.700364,22 43.5665833,22 C44.6369376,22 45.5925789,21.7166276 46.4335071,21.1481063 C47.2744352,20.5804732 48.0593618,19.8538319 48.7900931,18.9681822 C48.8117712,18.9441977 48.8262232,18.913995 48.8460948,18.8891222 C49.626505,20.9580069 51.1493889,22 53.4264888,22 C54.5474253,22 55.5410032,21.7166276 56.4072224,21.1481063 C56.7784592,20.9055964 57.1334375,20.6275539 57.4793833,20.3264152 C57.5326752,20.5786966 57.5940963,20.8087701 57.6690663,20.9979811 C57.9319128,21.6659937 58.3862489,22 59.0320745,22 C59.5586708,22 59.9443596,21.8631995 60.1909476,21.5869337 C60.4375356,21.3115562 60.6534129,20.7812323 60.8403862,19.9959622 C61.0960067,18.9770653 61.4265972,18.0079141 61.8348674,17.0893968 C62.2422343,16.1708794 62.6541175,15.4309133 63.0705169,14.8721634 C63.4860131,14.3125252 63.8220231,14.0318178 64.0767403,14.0318178 C64.2628104,14.0318178 64.3567487,14.1668416 64.3567487,14.4324477 C64.3567487,14.5497052 64.3395869,14.7753372 64.3061665,15.1093435 C64.2546811,15.3598482 64.22939,15.6112412 64.22939,15.8617459 C64.22939,16.6301381 64.4624292,17.2395219 64.9303141,17.6898974 C65.3972957,18.1411613 66.0810579,18.3667932 66.9806975,18.3667932 C67.5063905,18.3667932 68.0113087,18.2726318 68.4954521,18.0869741 C68.5252595,19.2249051 68.8287523,20.1576355 69.4267056,20.8727287 C70.0553694,21.6242429 70.8953943,22 71.9485869,22 C73.2908202,22 74.4036275,21.2991198 75.2870085,19.8955827 C75.524564,20.5467173 75.8768325,21.0601631 76.3438141,21.4368085 C76.8107957,21.8125656 77.3247464,22 77.8856663,22 C78.6154944,22 79.3715168,21.7086328 80.1528303,21.1232335 C80.5638103,20.8158766 80.9612414,20.4694339 81.3487368,20.0892352 C81.4815149,20.2668982 81.6097768,20.4490027 81.7705558,20.6097876 C82.6963897,21.5371881 83.9907507,22 85.6563485,22 C86.691476,22 87.7663466,21.7370589 88.8782506,21.2111766 C89.5502705,20.89316 90.1581595,20.4845352 90.7154664,20.0048454 C90.846438,20.1967213 90.9746999,20.3903739 91.1336724,20.560042 C92.0342152,21.5203101 93.2987689,22 94.9300431,22 C96.0003974,22 96.9217151,21.7992409 97.6948993,21.398611 C98.4671803,20.9979811 99.0913279,20.4383429 99.567342,19.7205847 C99.8554796,19.2853105 100,18.7674231 100,18.1669224 C100,17.8160381 99.9367723,17.5406606 99.8094137,17.3399015 Z" id="type" fill="#000000"></path>
        </g>
    </g>
</svg>