<?xml version="1.0" encoding="UTF-8"?>
<svg width="100px" height="24px" viewBox="0 0 100 24" version="1.1" xmlns="http://www.w3.org/2000/svg" xmlns:xlink="http://www.w3.org/1999/xlink">
    <!-- Generator: Sketch 48.1 (47250) - http://www.bohemiancoding.com/sketch -->
    <title>logo copy 10</title>
    <desc>Created with Sketch.</desc>
    <defs></defs>
    <g id="new-simple-footer-copy" stroke="none" stroke-width="1" fill="none" fill-rule="evenodd" transform="translate(-40.000000, -28.000000)">
        <g id="logo-copy-10" transform="translate(40.000000, 28.000000)">
            <g id="circles" transform="translate(25.000000, 0.000000)">
                <circle id="Oval-Copy" fill="#78E9FF" cx="6.5" cy="6.5" r="4.5"></circle>
                <circle id="Oval-Copy-3" fill="#000000" cx="4.5" cy="4.5" r="4.5"></circle>
            </g>
            <path d="M52.0889566,3.35380475 C51.2478757,4.25525184 50.5307941,5.46698591 49.9363662,6.98689224 C49.3409771,8.50679856 48.9005391,10.1856933 48.6113995,12.0237687 L47.1589729,12.0237687 C46.3945986,12.0237687 46.0126037,12.4909294 46.0126037,13.4264043 C46.0126037,13.8268552 46.1021908,14.1202244 46.2798271,14.3030515 C46.4588091,14.4870321 46.8021624,14.579503 47.3116171,14.579503 L48.3059189,14.579503 C48.2543967,15.330036 48.2294046,16.0734559 48.2294046,16.8091859 C48.2294046,17.3563214 48.2543967,17.86693 48.299767,18.3512007 C48.1480841,18.4044531 48.003322,18.4888497 47.8724018,18.6382257 C47.0911097,19.5565906 46.4668835,20.2211891 46.0001077,20.6297144 C45.5329473,21.0401622 45.1292285,21.2435597 44.7897202,21.2435597 C44.2973754,21.2435597 44.0516837,20.9103953 44.0516837,20.2425286 C44.0516837,19.7742144 44.2125945,18.8131707 44.5349928,17.3597819 C44.9089133,15.6560872 45.0959697,14.4779964 45.0959697,13.8268552 C45.0959697,12.7414275 44.5428749,12.1985214 43.4391846,12.1985214 C42.8791689,12.1985214 42.2632093,12.3905764 41.5920748,12.7743018 C40.9211326,13.1589884 40.2373098,13.8020553 39.5417599,14.7038869 C38.8444798,15.6062952 38.2167932,16.7751582 37.6558162,18.2116292 C37.7234872,17.4770527 37.8092294,16.8587857 37.9113126,16.3579818 C38.0126268,15.8566011 38.1479687,15.2723618 38.3186841,14.6041106 C38.5732192,13.668828 38.7008713,13.0665175 38.7008713,12.8000629 C38.7008713,12.5664826 38.6330081,12.4074941 38.4968971,12.3230976 C38.3611707,12.2404313 38.1237456,12.1985214 37.7842373,12.1985214 C37.1542437,12.1985214 36.6665129,12.3115628 36.3189302,12.5370688 C35.9703863,12.762767 35.7191194,13.1172708 35.5664752,13.6013492 C34.9839666,15.4144325 34.6832922,17.3251774 34.6417668,19.3247405 C34.1484609,19.8809116 33.733784,20.3161593 33.401581,20.6172184 C32.9426873,21.0357405 32.5605001,21.2435597 32.2542506,21.2435597 C31.9318523,21.2435597 31.7023093,21.1103324 31.5669673,20.8429166 C31.4306642,20.576462 31.362801,20.1917753 31.362801,19.6898179 C31.362801,19.0386766 31.5669673,17.7950295 31.9741466,15.9571464 C32.2967372,14.43724 32.458417,13.4688909 32.458417,13.050561 C32.458417,12.482855 32.0256688,12.1985214 31.1595958,12.1985214 C30.5986189,12.1985214 30.1912474,12.2982977 29.93652,12.4997728 C29.6810237,12.6997099 29.4776263,13.0665175 29.3249821,13.6013492 C29.0612192,14.4779964 28.8482094,15.4259674 28.6665359,16.4208466 C27.8896656,16.5913698 27.2004599,16.6953756 26.599111,16.7336328 C26.4626156,15.4473068 26.0000692,14.3653396 25.2107028,13.4885001 C24.4201829,12.6118529 23.379934,12.1739138 22.0891873,12.1739138 C21.0358656,12.1739138 20.076745,12.4536335 19.2104798,13.0134573 C18.3442145,13.5728966 17.6640444,14.3491908 17.1718919,15.3433011 C16.678586,16.3372191 16.4328942,17.4689783 16.4328942,18.7385788 C16.4328942,19.083278 16.466153,19.4154811 16.5178674,19.7413401 C15.5629763,20.0975742 14.6707577,20.3792163 13.8467868,20.5799224 C12.717912,20.8552204 11.6005721,20.9930616 10.4966895,20.9930616 C8.27123753,20.9930616 6.589268,20.4466951 5.45193439,19.3522318 C4.31402404,18.2579608 3.74497274,16.7086406 3.74497274,14.7038869 C3.74497274,12.7833374 4.05910444,11.1255898 4.68794457,9.7310287 C5.31582347,8.33531406 6.15921133,7.30659932 7.15928053,6.56048796 C9.56429126,4.76643714 13.881199,5.60578839 15.0556363,5.60578839 C16.6685891,5.60578839 16.6685891,2.96738788 14.9864274,2.96738788 C14.1343884,2.96738788 11.9285456,2.6717117 10.237156,2.79590339 C8.39023846,2.93162991 6.77863135,3.20269845 5.24892149,4.19238701 C3.63385394,5.23686602 2.35656447,6.71063302 1.41340039,8.61522598 C0.470620804,10.5198189 0,12.6997099 0,15.1550911 C0,16.9262645 0.398528157,18.4792373 1.1969302,19.8161243 C1.99533224,21.152819 3.14247045,22.1834563 4.63661461,22.9099584 C6.1313355,23.6374218 7.88924262,24 9.91052822,24 C11.083043,24 12.3186149,23.8792688 13.6183973,23.6374218 C14.9172184,23.3949981 16.1693235,23.0147331 17.3758661,22.4968192 C17.4691059,22.4560628 17.5538869,22.4106924 17.639629,22.3662833 C17.9243469,22.712905 18.2538584,23.0176168 18.6370068,23.2742668 C19.3587023,23.7593065 20.2291969,24 21.2482986,24 C22.4540722,24 23.5323859,23.5780174 24.4836244,22.7350135 C25.4354396,21.8920095 26.0723541,20.7673634 26.3949447,19.3647279 C27.0614652,19.3372365 27.695496,19.2616834 28.301651,19.1444126 C28.2881937,19.3743402 28.2801193,19.5913873 28.2801193,19.7911322 C28.2801193,21.0595792 28.5302328,22.0794505 29.0314209,22.8478626 C29.5328012,23.6162746 30.3348559,24 31.4395075,24 C32.5118616,24 33.6443891,23.450942 34.8359364,22.3610927 C34.8882276,22.6008249 34.9480164,22.8167185 35.0191478,22.9980076 C35.2821418,23.6660666 35.7364216,24 36.3823717,24 C36.9087442,24 37.295353,23.86312 37.5418137,23.587053 C37.7875055,23.3115628 38.0043602,22.7811528 38.1912243,21.995823 C38.4461439,20.9771051 38.7812305,20.0077947 39.1976377,19.0894299 C39.6130836,18.1708728 40.0214163,17.4309133 40.4205212,16.8720508 C40.8188571,16.3126114 41.1297206,16.0317383 41.3500358,16.0317383 C41.5368999,16.0317383 41.6309087,16.1666958 41.6309087,16.4323814 C41.6309087,16.8347548 41.5199822,17.5606802 41.299667,18.6132336 C41.0610884,19.8161243 40.9426642,20.6508616 40.9426642,21.1191758 C40.9426642,22.0544584 41.1631716,22.7686567 41.6057243,23.2608095 C42.0463546,23.7548848 42.7003791,24 43.5666444,24 C44.637076,24 45.5925439,23.7166276 46.4334325,23.1479604 C47.2745134,22.5804467 48.0594582,21.8537523 48.7901892,20.9680695 C48.8119132,20.9442308 48.8263317,20.9138558 48.8461331,20.8890559 C49.6266562,22.9580202 51.1494452,24 53.4266116,24 C54.5476042,24 55.541137,23.7166276 56.40721,23.1479604 C56.7784391,22.9055367 57.1333272,22.6275473 57.4793719,22.3264882 C57.5328166,22.5785242 57.5941434,22.8086441 57.6691197,22.9980076 C57.9319215,23.6660666 58.3862013,24 59.0321514,24 C59.5587161,24 59.9445559,23.86312 60.1910167,23.587053 C60.4374774,23.3115628 60.6533709,22.7811528 60.8404272,21.995823 C61.0961158,20.9771051 61.4267808,20.0077947 61.8349213,19.0894299 C62.2422928,18.1708728 62.6542783,17.4309133 63.0706854,16.8720508 C63.4861313,16.3126114 63.8221792,16.0317383 64.0769065,16.0317383 C64.2630017,16.0317383 64.3568182,16.1666958 64.3568182,16.4323814 C64.3568182,16.5496522 64.3397082,16.7751582 64.3062573,17.1092838 C64.254735,17.3597819 64.2295507,17.611049 64.2295507,17.8615471 C64.2295507,18.6299591 64.4623619,19.2393827 64.9302912,19.6898179 C65.3974516,20.1410221 66.0812744,20.3669125 66.9806061,20.3669125 C67.5065941,20.3669125 68.0112426,20.2725191 68.495513,20.0868083 C68.5253112,21.2249117 68.8288694,22.1576951 69.4267577,22.8726624 C70.0555978,23.6241567 70.895333,24 71.9486547,24 C73.2909236,24 74.4038419,23.2990667 75.2870249,21.89547 C75.5246422,22.5468035 75.8768388,23.0601035 76.343807,23.4367157 C76.8109673,23.812559 77.3248437,24 77.8858206,24 C78.6155905,24 79.3716982,23.7085533 80.1529902,23.1233528 C80.5640144,22.8157573 80.9613891,22.4693278 81.3489592,22.0892551 C81.4816096,22.2668915 81.6098384,22.4489496 81.770557,22.6096683 C82.6964188,23.5370688 83.9908183,24 85.6564468,24 C86.6916972,24 87.7665505,23.7370058 88.8783153,23.2112098 C89.550411,22.8930407 90.1582962,22.4845154 90.7154282,22.0048586 C90.8465407,22.1967213 90.9747695,22.3903142 91.1337578,22.5598763 C92.0344353,23.520151 93.2988442,24 94.9300605,24 C96.0004922,24 96.9217401,23.7992939 97.6949577,23.3984585 C98.4674064,22.9980076 99.0912481,22.4381838 99.5674441,21.720525 C99.8556225,21.2852774 100,20.7673634 100,20.1669754 C100,19.8161243 99.9367507,19.5406341 99.8094832,19.3397357 C99.6812544,19.1390297 99.5078475,19.0386766 99.2865712,19.0386766 C99.0318438,19.0386766 98.8023008,19.1647908 98.5990957,19.4154811 C98.0038988,20.1669754 97.481948,20.7016149 97.0320899,21.0188227 C96.5822318,21.3360306 96.0087588,21.495019 95.3122477,21.495019 C94.3438992,21.495019 93.6564237,21.1103324 93.2482832,20.3419204 C95.2697611,19.8576497 96.7014249,19.202279 97.5413523,18.3752316 C98.382241,17.5481841 98.8023008,16.5584956 98.8023008,15.4055892 C98.8023008,14.4203223 98.5052791,13.6396064 97.9108512,13.0630571 C97.3164233,12.4865077 96.5260956,12.1985214 95.5415984,12.1985214 C94.4367546,12.1985214 93.4478357,12.4909294 92.5734961,13.0755531 C91.6981952,13.6599846 91.0145646,14.4495438 90.5224122,15.4426929 C90.0291062,16.4368031 89.7834145,17.5099269 89.7834145,18.6628334 C89.7834145,19.0094551 89.814174,19.3318536 89.8547381,19.6481002 C89.3887312,20.0762348 88.9198407,20.4351603 88.4457594,20.7050753 C87.6388985,21.1653151 86.8877892,21.3935125 86.1910859,21.3935125 C84.4748964,21.3935125 83.6176667,20.4263169 83.6176667,18.4878884 C83.6176667,17.7861862 83.7197499,17.1431193 83.9229551,16.5584956 C84.1273137,15.9738719 84.3981898,15.5103639 84.7388516,15.1683561 C85.0783599,14.8253871 85.4432448,14.6548639 85.8342753,14.6548639 C86.0374805,14.6548639 86.1947386,14.712538 86.3058574,14.830001 C86.4160149,14.9470796 86.4711899,15.1133734 86.4711899,15.330036 C86.4711899,15.5476598 86.4287033,15.7812402 86.3437301,16.0317383 C86.3266201,16.098448 86.3014357,16.2074522 86.2668312,16.3579818 C86.2335725,16.5079346 86.2164625,16.6419309 86.2164625,16.7593939 C86.2164625,17.0258485 86.314124,17.235398 86.5090625,17.385543 C86.7041933,17.5356881 86.9635346,17.611049 87.2867019,17.611049 C87.7963488,17.611049 88.208142,17.3686253 88.522466,16.8837778 C88.8367899,16.3995071 88.9930868,15.8060401 88.9930868,15.1043378 C88.9930868,14.2524905 88.7345145,13.5561711 88.2164087,13.0134573 C87.6977261,12.4705512 86.9725702,12.1985214 86.0374805,12.1985214 C85.0864343,12.1985214 84.1778747,12.4740117 83.3116094,13.0257611 C82.4453442,13.5775106 81.7407587,14.3616869 81.197084,15.380597 C80.6534093,16.3995071 80.382341,17.5854801 80.382341,18.9392848 C80.382341,19.2315006 80.415023,19.5033381 80.4482817,19.7724842 C80.1203082,20.127757 79.8330911,20.4155511 79.5929745,20.6297144 C79.1340808,21.0401622 78.742858,21.2435597 78.4204597,21.2435597 C78.2172546,21.2435597 78.0511531,21.1689678 77.9236933,21.0188227 C77.7962335,20.8686777 77.7329842,20.6679716 77.7329842,20.4172813 C77.7329842,19.665018 77.9271537,18.3289 78.3193377,16.4075815 C78.5731039,15.0893425 78.7003714,14.2524905 78.7003714,13.9024083 C78.7003714,13.3179769 78.2839643,13.0257611 77.4521113,13.0257611 C77.0610807,13.0257611 76.6881214,13.0595966 76.3313109,13.1261142 C76.2463377,12.7583453 76.1398328,12.5034255 76.0133343,12.3611626 C75.8858745,12.2192841 75.6347998,12.1481527 75.260687,12.1481527 C74.0893257,12.1481527 72.9810214,12.5114999 71.9369276,13.238771 C70.8918726,13.9646964 70.0555978,14.9257402 69.4267577,16.1195952 C69.2577725,16.4404558 69.1160865,16.7663148 68.9922794,17.097749 C68.5949047,17.3786221 68.2427081,17.5356881 67.950108,17.5356881 C67.5246653,17.5356881 67.3122323,17.2442413 67.3122323,16.6580796 C67.3122323,16.4917858 67.3799033,16.0734559 67.5162064,15.4055892 C67.6690428,14.5706596 67.7449804,14.0446713 67.7449804,13.8268552 C67.7449804,12.7414275 67.1930391,12.1985214 66.0891565,12.1985214 C65.5281796,12.1985214 64.9133735,12.3905764 64.2420467,12.7743018 C63.5709123,13.1589884 62.8870895,13.8020553 62.1917318,14.7038869 C61.4942595,15.6062952 60.8667651,16.7751582 60.3057882,18.2116292 C60.3734591,17.4770527 60.4592013,16.8587857 60.5605155,16.3579818 C60.6624065,15.8566011 60.7979406,15.2723618 60.968656,14.6041106 C61.2233834,13.668828 61.349882,13.0665175 61.349882,12.8000629 C61.349882,12.5664826 61.282211,12.4074941 61.1466768,12.3230976 C61.0103737,12.2404313 60.772564,12.1985214 60.4328635,12.1985214 C59.8046001,12.1985214 59.3157158,12.3115628 58.9681331,12.5370688 C58.6195892,12.762767 58.3690913,13.1172708 58.2164471,13.6013492 C57.6375912,15.4028977 57.3376858,17.3028767 57.2923155,19.2891747 C56.7738252,19.839194 56.3078183,20.2752106 55.8977553,20.5924185 C55.3379319,21.0267049 54.6919818,21.2435597 53.9620197,21.2435597 C53.0615344,21.2435597 52.4030883,20.8934776 51.9876424,20.1917753 C51.5704662,19.4898808 51.3626472,18.2712258 51.3626472,16.5336957 C51.3626472,16.0655738 51.3797572,15.4144325 51.4141694,14.579503 L54.5222276,14.579503 C56.4416223,14.579503 57.4007428,14.0029536 57.4007428,12.8496627 C57.4007428,12.5326471 57.3413385,12.3159845 57.2231066,12.1985214 C57.1037211,12.0814429 56.9083981,12.0237687 56.6365608,12.0237687 L53.7834222,12.0237687 C55.9909951,10.102258 57.0954545,7.84700619 57.0954545,5.25743647 C57.0954545,4.32273061 56.8914804,3.54566745 56.4841089,2.92740047 C56.0765451,2.31009473 55.5155682,2 54.8023316,2 C53.8349444,2 52.9298452,2.45120417 52.0889566,3.35380475 Z M52.3698295,7.95158866 C52.6499335,6.84116886 52.9467629,5.97144255 53.2612791,5.34529344 C53.5746418,4.71895208 53.8601287,4.40558915 54.1148561,4.40558915 C54.4878154,4.40558915 54.6746795,4.89851096 54.6746795,5.88358558 C54.6746795,6.75350414 54.4237971,7.71800832 53.923378,8.7778671 C53.4229589,9.83926387 52.6705039,10.7951169 51.6688967,11.6469642 C51.8559531,10.2941207 52.0889566,9.06296969 52.3698295,7.95158866 Z M71.9874886,21.0941836 C71.7742866,20.8429166 71.6685507,20.4589989 71.6685507,19.9412772 C71.6685507,19.0058024 71.8465715,18.121273 72.204151,17.2842287 C72.5611538,16.4500682 73.0408102,15.7777797 73.6431202,15.2679402 C74.2465838,14.7588696 74.90503,14.4958754 75.6176898,14.4779964 L74.6756792,19.0894299 C74.5220738,19.8070887 74.2754208,20.384407 73.9357203,20.8181167 C73.596981,21.2524031 73.2394014,21.4690657 72.8662499,21.4690657 C72.4923293,21.4690657 72.1997293,21.3446817 71.9874886,21.0941836 Z M92.8662883,18.3377434 C92.8662883,17.3190255 93.0829508,16.4500682 93.5156989,15.7316404 C93.9490238,15.0137894 94.4802024,14.6548639 95.1080813,14.6548639 C95.4143309,14.6548639 95.6563699,14.7507952 95.8341984,14.9428502 C96.0131805,15.1347129 96.1025753,15.3894404 96.1025753,15.7066483 C96.1025753,16.323954 95.8134358,16.8676291 95.2363101,17.334982 C94.6582232,17.8029117 93.8677033,18.153955 92.8662883,18.3875354 L92.8662883,18.3377434 Z M20.1651787,20.6172184 C19.8001015,20.1331399 19.6178513,19.4312454 19.6178513,18.5128806 C19.6178513,17.3438254 19.8427804,16.4368031 20.2924462,15.7945052 C20.7423044,15.1514384 21.307703,14.830001 21.9871041,14.830001 L22.1145639,14.830001 C22.0638106,15.0972246 22.037665,15.3636793 22.037665,15.6312874 C22.037665,16.2662798 22.1785821,16.8676291 22.4584939,17.435335 C22.7384056,18.00381 23.1423167,18.4630885 23.6690736,18.8131707 C23.5323859,19.6321437 23.2651625,20.2582928 22.8658654,20.6927715 C22.4677217,21.1282114 21.9959474,21.3446817 21.4522727,21.3446817 C20.959159,21.3446817 20.5310248,21.102258 20.1651787,20.6172184 Z" id="type" fill="#000000"></path>
        </g>
    </g>
</svg>